solid OpenSCAD_Model
  facet normal 0 0 -1
    outer loop
      vertex -29.9408 1.88372 -50
      vertex -29.7634 3.76 -50
      vertex -30 0 -50
    endloop
  endfacet
  facet normal 0 0 -1
    outer loop
      vertex -30 0 -50
      vertex -29.7634 3.76 -50
      vertex -29.4686 5.62144 -50
    endloop
  endfacet
  facet normal 0 0 -1
    outer loop
      vertex -30 0 -50
      vertex -29.4686 5.62144 -50
      vertex -29.0575 7.4607 -50
    endloop
  endfacet
  facet normal 0 0 -1
    outer loop
      vertex -30 0 -50
      vertex -29.0575 7.4607 -50
      vertex -28.5317 9.27051 -50
    endloop
  endfacet
  facet normal 0 0 -1
    outer loop
      vertex -30 0 -50
      vertex -28.5317 9.27051 -50
      vertex -27.8933 11.0437 -50
    endloop
  endfacet
  facet normal 0 0 -1
    outer loop
      vertex -30 0 -50
      vertex -27.8933 11.0437 -50
      vertex -27.1448 12.7734 -50
    endloop
  endfacet
  facet normal 0 0 -1
    outer loop
      vertex -30 0 -50
      vertex -27.1448 12.7734 -50
      vertex -26.2892 14.4526 -50
    endloop
  endfacet
  facet normal 0 0 -1
    outer loop
      vertex -30 0 -50
      vertex -26.2892 14.4526 -50
      vertex -25.3298 16.0748 -50
    endloop
  endfacet
  facet normal 0 0 -1
    outer loop
      vertex -30 0 -50
      vertex -25.3298 16.0748 -50
      vertex -24.2705 17.6336 -50
    endloop
  endfacet
  facet normal 0 0 -1
    outer loop
      vertex -30 0 -50
      vertex -24.2705 17.6336 -50
      vertex -23.1154 19.1227 -50
    endloop
  endfacet
  facet normal 0 0 -1
    outer loop
      vertex -30 0 -50
      vertex -23.1154 19.1227 -50
      vertex -21.8691 20.5364 -50
    endloop
  endfacet
  facet normal 0 0 -1
    outer loop
      vertex -30 0 -50
      vertex -21.8691 20.5364 -50
      vertex -20.5364 21.8691 -50
    endloop
  endfacet
  facet normal 0 0 -1
    outer loop
      vertex -30 0 -50
      vertex -20.5364 21.8691 -50
      vertex -19.1227 23.1154 -50
    endloop
  endfacet
  facet normal 0 0 -1
    outer loop
      vertex -30 0 -50
      vertex -19.1227 23.1154 -50
      vertex -17.6336 24.2705 -50
    endloop
  endfacet
  facet normal 0 0 -1
    outer loop
      vertex -30 0 -50
      vertex -17.6336 24.2705 -50
      vertex -16.0748 25.3298 -50
    endloop
  endfacet
  facet normal 0 0 -1
    outer loop
      vertex -30 0 -50
      vertex -16.0748 25.3298 -50
      vertex -14.4526 26.2892 -50
    endloop
  endfacet
  facet normal 0 0 -1
    outer loop
      vertex -30 0 -50
      vertex -14.4526 26.2892 -50
      vertex -12.7734 27.1448 -50
    endloop
  endfacet
  facet normal 0 0 -1
    outer loop
      vertex -30 0 -50
      vertex -12.7734 27.1448 -50
      vertex -11.0437 27.8933 -50
    endloop
  endfacet
  facet normal 0 0 -1
    outer loop
      vertex -30 0 -50
      vertex -11.0437 27.8933 -50
      vertex -9.27051 28.5317 -50
    endloop
  endfacet
  facet normal 0 0 -1
    outer loop
      vertex -30 0 -50
      vertex -9.27051 28.5317 -50
      vertex -7.4607 29.0575 -50
    endloop
  endfacet
  facet normal 0 0 -1
    outer loop
      vertex -30 0 -50
      vertex -7.4607 29.0575 -50
      vertex -5.62144 29.4686 -50
    endloop
  endfacet
  facet normal 0 0 -1
    outer loop
      vertex -30 0 -50
      vertex -5.62144 29.4686 -50
      vertex -3.76 29.7634 -50
    endloop
  endfacet
  facet normal 0 0 -1
    outer loop
      vertex -30 0 -50
      vertex -3.76 29.7634 -50
      vertex -1.88372 29.9408 -50
    endloop
  endfacet
  facet normal 0 0 -1
    outer loop
      vertex -30 0 -50
      vertex -1.88372 29.9408 -50
      vertex 0 30 -50
    endloop
  endfacet
  facet normal 0 0 -1
    outer loop
      vertex -30 0 -50
      vertex 0 30 -50
      vertex 1.88372 29.9408 -50
    endloop
  endfacet
  facet normal 0 0 -1
    outer loop
      vertex -30 0 -50
      vertex 1.88372 29.9408 -50
      vertex 3.76 29.7634 -50
    endloop
  endfacet
  facet normal 0 0 -1
    outer loop
      vertex -30 0 -50
      vertex 3.76 29.7634 -50
      vertex 5.62144 29.4686 -50
    endloop
  endfacet
  facet normal 0 0 -1
    outer loop
      vertex -30 0 -50
      vertex 5.62144 29.4686 -50
      vertex 7.4607 29.0575 -50
    endloop
  endfacet
  facet normal 0 0 -1
    outer loop
      vertex -30 0 -50
      vertex 7.4607 29.0575 -50
      vertex 9.27051 28.5317 -50
    endloop
  endfacet
  facet normal 0 0 -1
    outer loop
      vertex -30 0 -50
      vertex 9.27051 28.5317 -50
      vertex 11.0437 27.8933 -50
    endloop
  endfacet
  facet normal 0 0 -1
    outer loop
      vertex -30 0 -50
      vertex 11.0437 27.8933 -50
      vertex 12.7734 27.1448 -50
    endloop
  endfacet
  facet normal 0 0 -1
    outer loop
      vertex -30 0 -50
      vertex 12.7734 27.1448 -50
      vertex 14.4526 26.2892 -50
    endloop
  endfacet
  facet normal 0 0 -1
    outer loop
      vertex -30 0 -50
      vertex 14.4526 26.2892 -50
      vertex 16.0748 25.3298 -50
    endloop
  endfacet
  facet normal 0 0 -1
    outer loop
      vertex -30 0 -50
      vertex 16.0748 25.3298 -50
      vertex 17.6336 24.2705 -50
    endloop
  endfacet
  facet normal 0 0 -1
    outer loop
      vertex -30 0 -50
      vertex 17.6336 24.2705 -50
      vertex 19.1227 23.1154 -50
    endloop
  endfacet
  facet normal 0 0 -1
    outer loop
      vertex -30 0 -50
      vertex 19.1227 23.1154 -50
      vertex 20.5364 21.8691 -50
    endloop
  endfacet
  facet normal 0 0 -1
    outer loop
      vertex -30 0 -50
      vertex 20.5364 21.8691 -50
      vertex 21.8691 20.5364 -50
    endloop
  endfacet
  facet normal 0 0 -1
    outer loop
      vertex -30 0 -50
      vertex 21.8691 20.5364 -50
      vertex 23.1154 19.1227 -50
    endloop
  endfacet
  facet normal 0 0 -1
    outer loop
      vertex -30 0 -50
      vertex 23.1154 19.1227 -50
      vertex 24.2705 17.6336 -50
    endloop
  endfacet
  facet normal 0 0 -1
    outer loop
      vertex -30 0 -50
      vertex 24.2705 17.6336 -50
      vertex 25.3298 16.0748 -50
    endloop
  endfacet
  facet normal 0 0 -1
    outer loop
      vertex -30 0 -50
      vertex 25.3298 16.0748 -50
      vertex 26.2892 14.4526 -50
    endloop
  endfacet
  facet normal 0 0 -1
    outer loop
      vertex -30 0 -50
      vertex 26.2892 14.4526 -50
      vertex 27.1448 12.7734 -50
    endloop
  endfacet
  facet normal 0 0 -1
    outer loop
      vertex -30 0 -50
      vertex 27.1448 12.7734 -50
      vertex 27.8933 11.0437 -50
    endloop
  endfacet
  facet normal 0 0 -1
    outer loop
      vertex -30 0 -50
      vertex 27.8933 11.0437 -50
      vertex 28.5317 9.27051 -50
    endloop
  endfacet
  facet normal 0 0 -1
    outer loop
      vertex -30 0 -50
      vertex 28.5317 9.27051 -50
      vertex 29.0575 7.4607 -50
    endloop
  endfacet
  facet normal 0 0 -1
    outer loop
      vertex -30 0 -50
      vertex 29.0575 7.4607 -50
      vertex 29.4686 5.62144 -50
    endloop
  endfacet
  facet normal 0 0 -1
    outer loop
      vertex -30 0 -50
      vertex 29.4686 5.62144 -50
      vertex 29.7634 3.76 -50
    endloop
  endfacet
  facet normal 0 0 -1
    outer loop
      vertex -30 0 -50
      vertex 29.7634 3.76 -50
      vertex 29.9408 1.88372 -50
    endloop
  endfacet
  facet normal 0 0 -1
    outer loop
      vertex -30 0 -50
      vertex 29.9408 1.88372 -50
      vertex 30 0 -50
    endloop
  endfacet
  facet normal 0 0 -1
    outer loop
      vertex -30 0 -50
      vertex 30 0 -50
      vertex 29.9408 -1.88372 -50
    endloop
  endfacet
  facet normal 0 0 -1
    outer loop
      vertex -30 0 -50
      vertex 29.9408 -1.88372 -50
      vertex 29.7634 -3.76 -50
    endloop
  endfacet
  facet normal 0 0 -1
    outer loop
      vertex -30 0 -50
      vertex 29.7634 -3.76 -50
      vertex 29.4686 -5.62144 -50
    endloop
  endfacet
  facet normal 0 0 -1
    outer loop
      vertex -30 0 -50
      vertex 29.4686 -5.62144 -50
      vertex 29.0575 -7.4607 -50
    endloop
  endfacet
  facet normal 0 0 -1
    outer loop
      vertex -30 0 -50
      vertex 29.0575 -7.4607 -50
      vertex 28.5317 -9.27051 -50
    endloop
  endfacet
  facet normal 0 0 -1
    outer loop
      vertex -30 0 -50
      vertex 28.5317 -9.27051 -50
      vertex 27.8933 -11.0437 -50
    endloop
  endfacet
  facet normal 0 0 -1
    outer loop
      vertex -30 0 -50
      vertex 27.8933 -11.0437 -50
      vertex 27.1448 -12.7734 -50
    endloop
  endfacet
  facet normal 0 0 -1
    outer loop
      vertex -30 0 -50
      vertex 27.1448 -12.7734 -50
      vertex 26.2892 -14.4526 -50
    endloop
  endfacet
  facet normal 0 0 -1
    outer loop
      vertex -30 0 -50
      vertex 26.2892 -14.4526 -50
      vertex 25.3298 -16.0748 -50
    endloop
  endfacet
  facet normal 0 0 -1
    outer loop
      vertex -30 0 -50
      vertex 25.3298 -16.0748 -50
      vertex 24.2705 -17.6336 -50
    endloop
  endfacet
  facet normal 0 0 -1
    outer loop
      vertex -30 0 -50
      vertex 24.2705 -17.6336 -50
      vertex 23.1154 -19.1227 -50
    endloop
  endfacet
  facet normal 0 0 -1
    outer loop
      vertex -30 0 -50
      vertex 23.1154 -19.1227 -50
      vertex 21.8691 -20.5364 -50
    endloop
  endfacet
  facet normal 0 0 -1
    outer loop
      vertex -30 0 -50
      vertex 21.8691 -20.5364 -50
      vertex 20.5364 -21.8691 -50
    endloop
  endfacet
  facet normal 0 0 -1
    outer loop
      vertex -30 0 -50
      vertex 20.5364 -21.8691 -50
      vertex 19.1227 -23.1154 -50
    endloop
  endfacet
  facet normal 0 0 -1
    outer loop
      vertex -30 0 -50
      vertex 19.1227 -23.1154 -50
      vertex 17.6336 -24.2705 -50
    endloop
  endfacet
  facet normal 0 0 -1
    outer loop
      vertex -30 0 -50
      vertex 17.6336 -24.2705 -50
      vertex 16.0748 -25.3298 -50
    endloop
  endfacet
  facet normal 0 0 -1
    outer loop
      vertex -30 0 -50
      vertex 16.0748 -25.3298 -50
      vertex 14.4526 -26.2892 -50
    endloop
  endfacet
  facet normal 0 0 -1
    outer loop
      vertex -30 0 -50
      vertex 14.4526 -26.2892 -50
      vertex 12.7734 -27.1448 -50
    endloop
  endfacet
  facet normal 0 0 -1
    outer loop
      vertex -30 0 -50
      vertex 12.7734 -27.1448 -50
      vertex 11.0437 -27.8933 -50
    endloop
  endfacet
  facet normal 0 0 -1
    outer loop
      vertex -30 0 -50
      vertex 11.0437 -27.8933 -50
      vertex 9.27051 -28.5317 -50
    endloop
  endfacet
  facet normal 0 0 -1
    outer loop
      vertex -30 0 -50
      vertex 9.27051 -28.5317 -50
      vertex 7.4607 -29.0575 -50
    endloop
  endfacet
  facet normal 0 0 -1
    outer loop
      vertex -30 0 -50
      vertex 7.4607 -29.0575 -50
      vertex 5.62144 -29.4686 -50
    endloop
  endfacet
  facet normal 0 0 -1
    outer loop
      vertex -30 0 -50
      vertex 5.62144 -29.4686 -50
      vertex 3.76 -29.7634 -50
    endloop
  endfacet
  facet normal 0 0 -1
    outer loop
      vertex -30 0 -50
      vertex 3.76 -29.7634 -50
      vertex 1.88372 -29.9408 -50
    endloop
  endfacet
  facet normal 0 0 -1
    outer loop
      vertex -30 0 -50
      vertex 1.88372 -29.9408 -50
      vertex 0 -30 -50
    endloop
  endfacet
  facet normal 0 0 -1
    outer loop
      vertex -30 0 -50
      vertex 0 -30 -50
      vertex -1.88372 -29.9408 -50
    endloop
  endfacet
  facet normal 0 0 -1
    outer loop
      vertex -30 0 -50
      vertex -1.88372 -29.9408 -50
      vertex -3.76 -29.7634 -50
    endloop
  endfacet
  facet normal 0 0 -1
    outer loop
      vertex -30 0 -50
      vertex -3.76 -29.7634 -50
      vertex -5.62144 -29.4686 -50
    endloop
  endfacet
  facet normal 0 0 -1
    outer loop
      vertex -30 0 -50
      vertex -5.62144 -29.4686 -50
      vertex -7.4607 -29.0575 -50
    endloop
  endfacet
  facet normal 0 0 -1
    outer loop
      vertex -30 0 -50
      vertex -7.4607 -29.0575 -50
      vertex -9.27051 -28.5317 -50
    endloop
  endfacet
  facet normal 0 0 -1
    outer loop
      vertex -30 0 -50
      vertex -9.27051 -28.5317 -50
      vertex -11.0437 -27.8933 -50
    endloop
  endfacet
  facet normal 0 0 -1
    outer loop
      vertex -30 0 -50
      vertex -11.0437 -27.8933 -50
      vertex -12.7734 -27.1448 -50
    endloop
  endfacet
  facet normal 0 0 -1
    outer loop
      vertex -30 0 -50
      vertex -12.7734 -27.1448 -50
      vertex -14.4526 -26.2892 -50
    endloop
  endfacet
  facet normal 0 0 -1
    outer loop
      vertex -30 0 -50
      vertex -14.4526 -26.2892 -50
      vertex -16.0748 -25.3298 -50
    endloop
  endfacet
  facet normal 0 0 -1
    outer loop
      vertex -30 0 -50
      vertex -16.0748 -25.3298 -50
      vertex -17.6336 -24.2705 -50
    endloop
  endfacet
  facet normal 0 0 -1
    outer loop
      vertex -30 0 -50
      vertex -17.6336 -24.2705 -50
      vertex -19.1227 -23.1154 -50
    endloop
  endfacet
  facet normal 0 0 -1
    outer loop
      vertex -30 0 -50
      vertex -19.1227 -23.1154 -50
      vertex -20.5364 -21.8691 -50
    endloop
  endfacet
  facet normal 0 0 -1
    outer loop
      vertex -30 0 -50
      vertex -20.5364 -21.8691 -50
      vertex -21.8691 -20.5364 -50
    endloop
  endfacet
  facet normal 0 0 -1
    outer loop
      vertex -30 0 -50
      vertex -21.8691 -20.5364 -50
      vertex -23.1154 -19.1227 -50
    endloop
  endfacet
  facet normal 0 0 -1
    outer loop
      vertex -30 0 -50
      vertex -23.1154 -19.1227 -50
      vertex -24.2705 -17.6336 -50
    endloop
  endfacet
  facet normal 0 0 -1
    outer loop
      vertex -30 0 -50
      vertex -24.2705 -17.6336 -50
      vertex -25.3298 -16.0748 -50
    endloop
  endfacet
  facet normal 0 0 -1
    outer loop
      vertex -30 0 -50
      vertex -25.3298 -16.0748 -50
      vertex -26.2892 -14.4526 -50
    endloop
  endfacet
  facet normal 0 0 -1
    outer loop
      vertex -30 0 -50
      vertex -26.2892 -14.4526 -50
      vertex -27.1448 -12.7734 -50
    endloop
  endfacet
  facet normal 0 0 -1
    outer loop
      vertex -30 0 -50
      vertex -27.1448 -12.7734 -50
      vertex -27.8933 -11.0437 -50
    endloop
  endfacet
  facet normal 0 0 -1
    outer loop
      vertex -30 0 -50
      vertex -27.8933 -11.0437 -50
      vertex -28.5317 -9.27051 -50
    endloop
  endfacet
  facet normal 0 0 -1
    outer loop
      vertex -30 0 -50
      vertex -28.5317 -9.27051 -50
      vertex -29.0575 -7.4607 -50
    endloop
  endfacet
  facet normal 0 0 -1
    outer loop
      vertex -30 0 -50
      vertex -29.0575 -7.4607 -50
      vertex -29.4686 -5.62144 -50
    endloop
  endfacet
  facet normal 0 0 -1
    outer loop
      vertex -30 0 -50
      vertex -29.4686 -5.62144 -50
      vertex -29.7634 -3.76 -50
    endloop
  endfacet
  facet normal 0 0 -1
    outer loop
      vertex -30 0 -50
      vertex -29.7634 -3.76 -50
      vertex -29.9408 -1.88372 -50
    endloop
  endfacet
  facet normal 0.999507 0.0314107 0
    outer loop
      vertex 29.9408 1.88372 -50
      vertex 29.9408 1.88372 50
      vertex 30 0 50
    endloop
  endfacet
  facet normal 0.999507 0.0314107 0
    outer loop
      vertex 30 0 -50
      vertex 29.9408 1.88372 -50
      vertex 30 0 50
    endloop
  endfacet
  facet normal 0.995562 0.0941084 0
    outer loop
      vertex 29.7634 3.76 -50
      vertex 29.7634 3.76 50
      vertex 29.9408 1.88372 50
    endloop
  endfacet
  facet normal 0.995562 0.0941084 0
    outer loop
      vertex 29.9408 1.88372 -50
      vertex 29.7634 3.76 -50
      vertex 29.9408 1.88372 50
    endloop
  endfacet
  facet normal -0.999507 0.0314107 0
    outer loop
      vertex -30 0 50
      vertex -29.9408 1.88372 50
      vertex -30 0 -50
    endloop
  endfacet
  facet normal -0.999507 0.0314107 0
    outer loop
      vertex -30 0 -50
      vertex -29.9408 1.88372 50
      vertex -29.9408 1.88372 -50
    endloop
  endfacet
  facet normal -0.999507 -0.0314107 0
    outer loop
      vertex -29.9408 -1.88372 -50
      vertex -29.9408 -1.88372 50
      vertex -30 0 -50
    endloop
  endfacet
  facet normal -0.999507 -0.0314107 0
    outer loop
      vertex -30 0 -50
      vertex -29.9408 -1.88372 50
      vertex -30 0 50
    endloop
  endfacet
  facet normal -0.995562 -0.0941084 0
    outer loop
      vertex -29.7634 -3.76 -50
      vertex -29.7634 -3.76 50
      vertex -29.9408 -1.88372 -50
    endloop
  endfacet
  facet normal -0.995562 -0.0941084 0
    outer loop
      vertex -29.9408 -1.88372 -50
      vertex -29.7634 -3.76 50
      vertex -29.9408 -1.88372 50
    endloop
  endfacet
  facet normal -0.987688 -0.156434 0
    outer loop
      vertex -29.4686 -5.62144 -50
      vertex -29.4686 -5.62144 50
      vertex -29.7634 -3.76 -50
    endloop
  endfacet
  facet normal -0.987688 -0.156434 0
    outer loop
      vertex -29.7634 -3.76 -50
      vertex -29.4686 -5.62144 50
      vertex -29.7634 -3.76 50
    endloop
  endfacet
  facet normal -0.975917 -0.218143 0
    outer loop
      vertex -29.0575 -7.4607 -50
      vertex -29.0575 -7.4607 50
      vertex -29.4686 -5.62144 -50
    endloop
  endfacet
  facet normal -0.975917 -0.218143 0
    outer loop
      vertex -29.4686 -5.62144 -50
      vertex -29.0575 -7.4607 50
      vertex -29.4686 -5.62144 50
    endloop
  endfacet
  facet normal -0.960294 -0.278991 0
    outer loop
      vertex -28.5317 -9.27051 -50
      vertex -28.5317 -9.27051 50
      vertex -29.0575 -7.4607 -50
    endloop
  endfacet
  facet normal -0.960294 -0.278991 0
    outer loop
      vertex -29.0575 -7.4607 -50
      vertex -28.5317 -9.27051 50
      vertex -29.0575 -7.4607 50
    endloop
  endfacet
  facet normal -0.940881 -0.338737 0
    outer loop
      vertex -27.8933 -11.0437 -50
      vertex -27.8933 -11.0437 50
      vertex -28.5317 -9.27051 -50
    endloop
  endfacet
  facet normal -0.940881 -0.338737 0
    outer loop
      vertex -28.5317 -9.27051 -50
      vertex -27.8933 -11.0437 50
      vertex -28.5317 -9.27051 50
    endloop
  endfacet
  facet normal -0.917755 -0.397148 0
    outer loop
      vertex -27.1448 -12.7734 -50
      vertex -27.1448 -12.7734 50
      vertex -27.8933 -11.0437 -50
    endloop
  endfacet
  facet normal -0.917755 -0.397148 0
    outer loop
      vertex -27.8933 -11.0437 -50
      vertex -27.1448 -12.7734 50
      vertex -27.8933 -11.0437 50
    endloop
  endfacet
  facet normal -0.891006 -0.453991 0
    outer loop
      vertex -26.2892 -14.4526 -50
      vertex -26.2892 -14.4526 50
      vertex -27.1448 -12.7734 -50
    endloop
  endfacet
  facet normal -0.891006 -0.453991 0
    outer loop
      vertex -27.1448 -12.7734 -50
      vertex -26.2892 -14.4526 50
      vertex -27.1448 -12.7734 50
    endloop
  endfacet
  facet normal -0.860742 -0.509041 0
    outer loop
      vertex -25.3298 -16.0748 -50
      vertex -25.3298 -16.0748 50
      vertex -26.2892 -14.4526 -50
    endloop
  endfacet
  facet normal -0.860742 -0.509041 0
    outer loop
      vertex -26.2892 -14.4526 -50
      vertex -25.3298 -16.0748 50
      vertex -26.2892 -14.4526 50
    endloop
  endfacet
  facet normal -0.827081 -0.562083 0
    outer loop
      vertex -24.2705 -17.6336 -50
      vertex -24.2705 -17.6336 50
      vertex -25.3298 -16.0748 -50
    endloop
  endfacet
  facet normal -0.827081 -0.562083 0
    outer loop
      vertex -25.3298 -16.0748 -50
      vertex -24.2705 -17.6336 50
      vertex -25.3298 -16.0748 50
    endloop
  endfacet
  facet normal -0.790155 -0.612907 0
    outer loop
      vertex -23.1154 -19.1227 -50
      vertex -23.1154 -19.1227 50
      vertex -24.2705 -17.6336 -50
    endloop
  endfacet
  facet normal -0.790155 -0.612907 0
    outer loop
      vertex -24.2705 -17.6336 -50
      vertex -23.1154 -19.1227 50
      vertex -24.2705 -17.6336 50
    endloop
  endfacet
  facet normal -0.750111 -0.661312 0
    outer loop
      vertex -21.8691 -20.5364 -50
      vertex -21.8691 -20.5364 50
      vertex -23.1154 -19.1227 -50
    endloop
  endfacet
  facet normal -0.750111 -0.661312 0
    outer loop
      vertex -23.1154 -19.1227 -50
      vertex -21.8691 -20.5364 50
      vertex -23.1154 -19.1227 50
    endloop
  endfacet
  facet normal -0.707107 -0.707107 0
    outer loop
      vertex -21.8691 -20.5364 -50
      vertex -20.5364 -21.8691 -50
      vertex -20.5364 -21.8691 50
    endloop
  endfacet
  facet normal -0.707107 -0.707107 0
    outer loop
      vertex -21.8691 -20.5364 50
      vertex -21.8691 -20.5364 -50
      vertex -20.5364 -21.8691 50
    endloop
  endfacet
  facet normal -0.661312 -0.750111 0
    outer loop
      vertex -20.5364 -21.8691 -50
      vertex -19.1227 -23.1154 -50
      vertex -19.1227 -23.1154 50
    endloop
  endfacet
  facet normal -0.661312 -0.750111 0
    outer loop
      vertex -20.5364 -21.8691 50
      vertex -20.5364 -21.8691 -50
      vertex -19.1227 -23.1154 50
    endloop
  endfacet
  facet normal -0.612907 -0.790155 0
    outer loop
      vertex -19.1227 -23.1154 -50
      vertex -17.6336 -24.2705 -50
      vertex -17.6336 -24.2705 50
    endloop
  endfacet
  facet normal -0.612907 -0.790155 0
    outer loop
      vertex -19.1227 -23.1154 50
      vertex -19.1227 -23.1154 -50
      vertex -17.6336 -24.2705 50
    endloop
  endfacet
  facet normal -0.562083 -0.827081 0
    outer loop
      vertex -17.6336 -24.2705 -50
      vertex -16.0748 -25.3298 -50
      vertex -16.0748 -25.3298 50
    endloop
  endfacet
  facet normal -0.562083 -0.827081 0
    outer loop
      vertex -17.6336 -24.2705 50
      vertex -17.6336 -24.2705 -50
      vertex -16.0748 -25.3298 50
    endloop
  endfacet
  facet normal -0.509041 -0.860742 0
    outer loop
      vertex -16.0748 -25.3298 -50
      vertex -14.4526 -26.2892 -50
      vertex -14.4526 -26.2892 50
    endloop
  endfacet
  facet normal -0.509041 -0.860742 0
    outer loop
      vertex -16.0748 -25.3298 50
      vertex -16.0748 -25.3298 -50
      vertex -14.4526 -26.2892 50
    endloop
  endfacet
  facet normal -0.453991 -0.891006 0
    outer loop
      vertex -14.4526 -26.2892 -50
      vertex -12.7734 -27.1448 -50
      vertex -12.7734 -27.1448 50
    endloop
  endfacet
  facet normal -0.453991 -0.891006 0
    outer loop
      vertex -14.4526 -26.2892 50
      vertex -14.4526 -26.2892 -50
      vertex -12.7734 -27.1448 50
    endloop
  endfacet
  facet normal -0.397148 -0.917755 0
    outer loop
      vertex -12.7734 -27.1448 -50
      vertex -11.0437 -27.8933 -50
      vertex -11.0437 -27.8933 50
    endloop
  endfacet
  facet normal -0.397148 -0.917755 0
    outer loop
      vertex -12.7734 -27.1448 50
      vertex -12.7734 -27.1448 -50
      vertex -11.0437 -27.8933 50
    endloop
  endfacet
  facet normal -0.338737 -0.940881 0
    outer loop
      vertex -11.0437 -27.8933 -50
      vertex -9.27051 -28.5317 -50
      vertex -9.27051 -28.5317 50
    endloop
  endfacet
  facet normal -0.338737 -0.940881 0
    outer loop
      vertex -11.0437 -27.8933 50
      vertex -11.0437 -27.8933 -50
      vertex -9.27051 -28.5317 50
    endloop
  endfacet
  facet normal -0.278991 -0.960294 0
    outer loop
      vertex -9.27051 -28.5317 -50
      vertex -7.4607 -29.0575 -50
      vertex -7.4607 -29.0575 50
    endloop
  endfacet
  facet normal -0.278991 -0.960294 0
    outer loop
      vertex -9.27051 -28.5317 50
      vertex -9.27051 -28.5317 -50
      vertex -7.4607 -29.0575 50
    endloop
  endfacet
  facet normal -0.218143 -0.975917 0
    outer loop
      vertex -7.4607 -29.0575 -50
      vertex -5.62144 -29.4686 -50
      vertex -5.62144 -29.4686 50
    endloop
  endfacet
  facet normal -0.218143 -0.975917 0
    outer loop
      vertex -7.4607 -29.0575 50
      vertex -7.4607 -29.0575 -50
      vertex -5.62144 -29.4686 50
    endloop
  endfacet
  facet normal -0.156434 -0.987688 0
    outer loop
      vertex -5.62144 -29.4686 -50
      vertex -3.76 -29.7634 -50
      vertex -3.76 -29.7634 50
    endloop
  endfacet
  facet normal -0.156434 -0.987688 0
    outer loop
      vertex -5.62144 -29.4686 50
      vertex -5.62144 -29.4686 -50
      vertex -3.76 -29.7634 50
    endloop
  endfacet
  facet normal -0.0941084 -0.995562 0
    outer loop
      vertex -3.76 -29.7634 -50
      vertex -1.88372 -29.9408 -50
      vertex -1.88372 -29.9408 50
    endloop
  endfacet
  facet normal -0.0941084 -0.995562 0
    outer loop
      vertex -3.76 -29.7634 50
      vertex -3.76 -29.7634 -50
      vertex -1.88372 -29.9408 50
    endloop
  endfacet
  facet normal -0.0314107 -0.999507 0
    outer loop
      vertex -1.88372 -29.9408 -50
      vertex 0 -30 -50
      vertex 0 -30 50
    endloop
  endfacet
  facet normal -0.0314107 -0.999507 0
    outer loop
      vertex -1.88372 -29.9408 50
      vertex -1.88372 -29.9408 -50
      vertex 0 -30 50
    endloop
  endfacet
  facet normal 0.0314107 -0.999507 0
    outer loop
      vertex 0 -30 -50
      vertex 1.88372 -29.9408 -50
      vertex 1.88372 -29.9408 50
    endloop
  endfacet
  facet normal 0.0314107 -0.999507 0
    outer loop
      vertex 0 -30 50
      vertex 0 -30 -50
      vertex 1.88372 -29.9408 50
    endloop
  endfacet
  facet normal 0.0941084 -0.995562 0
    outer loop
      vertex 1.88372 -29.9408 -50
      vertex 3.76 -29.7634 -50
      vertex 3.76 -29.7634 50
    endloop
  endfacet
  facet normal 0.0941084 -0.995562 0
    outer loop
      vertex 1.88372 -29.9408 50
      vertex 1.88372 -29.9408 -50
      vertex 3.76 -29.7634 50
    endloop
  endfacet
  facet normal 0.156434 -0.987688 0
    outer loop
      vertex 3.76 -29.7634 -50
      vertex 5.62144 -29.4686 -50
      vertex 5.62144 -29.4686 50
    endloop
  endfacet
  facet normal 0.156434 -0.987688 0
    outer loop
      vertex 3.76 -29.7634 50
      vertex 3.76 -29.7634 -50
      vertex 5.62144 -29.4686 50
    endloop
  endfacet
  facet normal 0.218143 -0.975917 0
    outer loop
      vertex 5.62144 -29.4686 -50
      vertex 7.4607 -29.0575 -50
      vertex 7.4607 -29.0575 50
    endloop
  endfacet
  facet normal 0.218143 -0.975917 0
    outer loop
      vertex 5.62144 -29.4686 50
      vertex 5.62144 -29.4686 -50
      vertex 7.4607 -29.0575 50
    endloop
  endfacet
  facet normal 0.278991 -0.960294 0
    outer loop
      vertex 7.4607 -29.0575 -50
      vertex 9.27051 -28.5317 -50
      vertex 9.27051 -28.5317 50
    endloop
  endfacet
  facet normal 0.278991 -0.960294 0
    outer loop
      vertex 7.4607 -29.0575 50
      vertex 7.4607 -29.0575 -50
      vertex 9.27051 -28.5317 50
    endloop
  endfacet
  facet normal 0.338737 -0.940881 0
    outer loop
      vertex 9.27051 -28.5317 -50
      vertex 11.0437 -27.8933 -50
      vertex 11.0437 -27.8933 50
    endloop
  endfacet
  facet normal 0.338737 -0.940881 0
    outer loop
      vertex 9.27051 -28.5317 50
      vertex 9.27051 -28.5317 -50
      vertex 11.0437 -27.8933 50
    endloop
  endfacet
  facet normal 0.397148 -0.917755 0
    outer loop
      vertex 11.0437 -27.8933 -50
      vertex 12.7734 -27.1448 -50
      vertex 12.7734 -27.1448 50
    endloop
  endfacet
  facet normal 0.397148 -0.917755 0
    outer loop
      vertex 11.0437 -27.8933 50
      vertex 11.0437 -27.8933 -50
      vertex 12.7734 -27.1448 50
    endloop
  endfacet
  facet normal 0.453991 -0.891006 0
    outer loop
      vertex 12.7734 -27.1448 -50
      vertex 14.4526 -26.2892 -50
      vertex 14.4526 -26.2892 50
    endloop
  endfacet
  facet normal 0.453991 -0.891006 0
    outer loop
      vertex 12.7734 -27.1448 50
      vertex 12.7734 -27.1448 -50
      vertex 14.4526 -26.2892 50
    endloop
  endfacet
  facet normal 0.509041 -0.860742 0
    outer loop
      vertex 14.4526 -26.2892 -50
      vertex 16.0748 -25.3298 -50
      vertex 16.0748 -25.3298 50
    endloop
  endfacet
  facet normal 0.509041 -0.860742 0
    outer loop
      vertex 14.4526 -26.2892 50
      vertex 14.4526 -26.2892 -50
      vertex 16.0748 -25.3298 50
    endloop
  endfacet
  facet normal 0.562083 -0.827081 0
    outer loop
      vertex 16.0748 -25.3298 -50
      vertex 17.6336 -24.2705 -50
      vertex 17.6336 -24.2705 50
    endloop
  endfacet
  facet normal 0.562083 -0.827081 0
    outer loop
      vertex 16.0748 -25.3298 50
      vertex 16.0748 -25.3298 -50
      vertex 17.6336 -24.2705 50
    endloop
  endfacet
  facet normal 0.612907 -0.790155 0
    outer loop
      vertex 17.6336 -24.2705 -50
      vertex 19.1227 -23.1154 -50
      vertex 19.1227 -23.1154 50
    endloop
  endfacet
  facet normal 0.612907 -0.790155 0
    outer loop
      vertex 17.6336 -24.2705 50
      vertex 17.6336 -24.2705 -50
      vertex 19.1227 -23.1154 50
    endloop
  endfacet
  facet normal 0.661312 -0.750111 0
    outer loop
      vertex 19.1227 -23.1154 -50
      vertex 20.5364 -21.8691 -50
      vertex 20.5364 -21.8691 50
    endloop
  endfacet
  facet normal 0.661312 -0.750111 0
    outer loop
      vertex 19.1227 -23.1154 50
      vertex 19.1227 -23.1154 -50
      vertex 20.5364 -21.8691 50
    endloop
  endfacet
  facet normal 0.707107 -0.707107 0
    outer loop
      vertex 20.5364 -21.8691 -50
      vertex 21.8691 -20.5364 -50
      vertex 21.8691 -20.5364 50
    endloop
  endfacet
  facet normal 0.707107 -0.707107 0
    outer loop
      vertex 20.5364 -21.8691 50
      vertex 20.5364 -21.8691 -50
      vertex 21.8691 -20.5364 50
    endloop
  endfacet
  facet normal 0.750111 -0.661312 0
    outer loop
      vertex 21.8691 -20.5364 -50
      vertex 23.1154 -19.1227 -50
      vertex 23.1154 -19.1227 50
    endloop
  endfacet
  facet normal 0.750111 -0.661312 0
    outer loop
      vertex 21.8691 -20.5364 50
      vertex 21.8691 -20.5364 -50
      vertex 23.1154 -19.1227 50
    endloop
  endfacet
  facet normal 0.790155 -0.612907 0
    outer loop
      vertex 23.1154 -19.1227 -50
      vertex 24.2705 -17.6336 -50
      vertex 24.2705 -17.6336 50
    endloop
  endfacet
  facet normal 0.790155 -0.612907 0
    outer loop
      vertex 23.1154 -19.1227 50
      vertex 23.1154 -19.1227 -50
      vertex 24.2705 -17.6336 50
    endloop
  endfacet
  facet normal 0.827081 -0.562083 0
    outer loop
      vertex 24.2705 -17.6336 -50
      vertex 25.3298 -16.0748 -50
      vertex 25.3298 -16.0748 50
    endloop
  endfacet
  facet normal 0.827081 -0.562083 0
    outer loop
      vertex 24.2705 -17.6336 50
      vertex 24.2705 -17.6336 -50
      vertex 25.3298 -16.0748 50
    endloop
  endfacet
  facet normal 0.860742 -0.509041 0
    outer loop
      vertex 25.3298 -16.0748 -50
      vertex 26.2892 -14.4526 -50
      vertex 26.2892 -14.4526 50
    endloop
  endfacet
  facet normal 0.860742 -0.509041 0
    outer loop
      vertex 25.3298 -16.0748 50
      vertex 25.3298 -16.0748 -50
      vertex 26.2892 -14.4526 50
    endloop
  endfacet
  facet normal 0.891006 -0.453991 0
    outer loop
      vertex 26.2892 -14.4526 -50
      vertex 27.1448 -12.7734 -50
      vertex 27.1448 -12.7734 50
    endloop
  endfacet
  facet normal 0.891006 -0.453991 0
    outer loop
      vertex 26.2892 -14.4526 50
      vertex 26.2892 -14.4526 -50
      vertex 27.1448 -12.7734 50
    endloop
  endfacet
  facet normal 0.917755 -0.397148 0
    outer loop
      vertex 27.1448 -12.7734 -50
      vertex 27.8933 -11.0437 -50
      vertex 27.8933 -11.0437 50
    endloop
  endfacet
  facet normal 0.917755 -0.397148 0
    outer loop
      vertex 27.1448 -12.7734 50
      vertex 27.1448 -12.7734 -50
      vertex 27.8933 -11.0437 50
    endloop
  endfacet
  facet normal 0.940881 -0.338737 0
    outer loop
      vertex 27.8933 -11.0437 -50
      vertex 28.5317 -9.27051 -50
      vertex 28.5317 -9.27051 50
    endloop
  endfacet
  facet normal 0.940881 -0.338737 0
    outer loop
      vertex 27.8933 -11.0437 50
      vertex 27.8933 -11.0437 -50
      vertex 28.5317 -9.27051 50
    endloop
  endfacet
  facet normal 0.960294 -0.278991 0
    outer loop
      vertex 28.5317 -9.27051 -50
      vertex 29.0575 -7.4607 -50
      vertex 29.0575 -7.4607 50
    endloop
  endfacet
  facet normal 0.960294 -0.278991 0
    outer loop
      vertex 28.5317 -9.27051 50
      vertex 28.5317 -9.27051 -50
      vertex 29.0575 -7.4607 50
    endloop
  endfacet
  facet normal 0.975917 -0.218143 0
    outer loop
      vertex 29.0575 -7.4607 -50
      vertex 29.4686 -5.62144 -50
      vertex 29.4686 -5.62144 50
    endloop
  endfacet
  facet normal 0.975917 -0.218143 0
    outer loop
      vertex 29.0575 -7.4607 50
      vertex 29.0575 -7.4607 -50
      vertex 29.4686 -5.62144 50
    endloop
  endfacet
  facet normal 0.987688 -0.156434 0
    outer loop
      vertex 29.4686 -5.62144 -50
      vertex 29.7634 -3.76 -50
      vertex 29.7634 -3.76 50
    endloop
  endfacet
  facet normal 0.987688 -0.156434 0
    outer loop
      vertex 29.4686 -5.62144 50
      vertex 29.4686 -5.62144 -50
      vertex 29.7634 -3.76 50
    endloop
  endfacet
  facet normal 0.995562 -0.0941084 0
    outer loop
      vertex 29.7634 -3.76 -50
      vertex 29.9408 -1.88372 -50
      vertex 29.9408 -1.88372 50
    endloop
  endfacet
  facet normal 0.995562 -0.0941084 0
    outer loop
      vertex 29.7634 -3.76 50
      vertex 29.7634 -3.76 -50
      vertex 29.9408 -1.88372 50
    endloop
  endfacet
  facet normal 0.999507 -0.0314107 0
    outer loop
      vertex 29.9408 -1.88372 -50
      vertex 30 0 -50
      vertex 30 0 50
    endloop
  endfacet
  facet normal 0.999507 -0.0314107 0
    outer loop
      vertex 29.9408 -1.88372 50
      vertex 29.9408 -1.88372 -50
      vertex 30 0 50
    endloop
  endfacet
  facet normal 0.987688 0.156434 0
    outer loop
      vertex 29.4686 5.62144 -50
      vertex 29.4686 5.62144 50
      vertex 29.7634 3.76 50
    endloop
  endfacet
  facet normal 0.987688 0.156434 0
    outer loop
      vertex 29.7634 3.76 -50
      vertex 29.4686 5.62144 -50
      vertex 29.7634 3.76 50
    endloop
  endfacet
  facet normal 0.975917 0.218143 0
    outer loop
      vertex 29.0575 7.4607 -50
      vertex 29.0575 7.4607 50
      vertex 29.4686 5.62144 50
    endloop
  endfacet
  facet normal 0.975917 0.218143 0
    outer loop
      vertex 29.4686 5.62144 -50
      vertex 29.0575 7.4607 -50
      vertex 29.4686 5.62144 50
    endloop
  endfacet
  facet normal 0.960294 0.278991 0
    outer loop
      vertex 28.5317 9.27051 -50
      vertex 28.5317 9.27051 50
      vertex 29.0575 7.4607 50
    endloop
  endfacet
  facet normal 0.960294 0.278991 0
    outer loop
      vertex 29.0575 7.4607 -50
      vertex 28.5317 9.27051 -50
      vertex 29.0575 7.4607 50
    endloop
  endfacet
  facet normal 0.940881 0.338737 0
    outer loop
      vertex 27.8933 11.0437 -50
      vertex 27.8933 11.0437 50
      vertex 28.5317 9.27051 50
    endloop
  endfacet
  facet normal 0.940881 0.338737 0
    outer loop
      vertex 28.5317 9.27051 -50
      vertex 27.8933 11.0437 -50
      vertex 28.5317 9.27051 50
    endloop
  endfacet
  facet normal 0.917755 0.397148 0
    outer loop
      vertex 27.1448 12.7734 -50
      vertex 27.1448 12.7734 50
      vertex 27.8933 11.0437 50
    endloop
  endfacet
  facet normal 0.917755 0.397148 0
    outer loop
      vertex 27.8933 11.0437 -50
      vertex 27.1448 12.7734 -50
      vertex 27.8933 11.0437 50
    endloop
  endfacet
  facet normal 0.891006 0.453991 0
    outer loop
      vertex 26.2892 14.4526 -50
      vertex 26.2892 14.4526 50
      vertex 27.1448 12.7734 50
    endloop
  endfacet
  facet normal 0.891006 0.453991 0
    outer loop
      vertex 27.1448 12.7734 -50
      vertex 26.2892 14.4526 -50
      vertex 27.1448 12.7734 50
    endloop
  endfacet
  facet normal 0.860742 0.509041 0
    outer loop
      vertex 25.3298 16.0748 -50
      vertex 25.3298 16.0748 50
      vertex 26.2892 14.4526 50
    endloop
  endfacet
  facet normal 0.860742 0.509041 0
    outer loop
      vertex 26.2892 14.4526 -50
      vertex 25.3298 16.0748 -50
      vertex 26.2892 14.4526 50
    endloop
  endfacet
  facet normal 0.827081 0.562083 0
    outer loop
      vertex 24.2705 17.6336 -50
      vertex 24.2705 17.6336 50
      vertex 25.3298 16.0748 50
    endloop
  endfacet
  facet normal 0.827081 0.562083 0
    outer loop
      vertex 25.3298 16.0748 -50
      vertex 24.2705 17.6336 -50
      vertex 25.3298 16.0748 50
    endloop
  endfacet
  facet normal 0.790155 0.612907 0
    outer loop
      vertex 23.1154 19.1227 -50
      vertex 23.1154 19.1227 50
      vertex 24.2705 17.6336 50
    endloop
  endfacet
  facet normal 0.790155 0.612907 0
    outer loop
      vertex 24.2705 17.6336 -50
      vertex 23.1154 19.1227 -50
      vertex 24.2705 17.6336 50
    endloop
  endfacet
  facet normal 0.750111 0.661312 0
    outer loop
      vertex 21.8691 20.5364 -50
      vertex 21.8691 20.5364 50
      vertex 23.1154 19.1227 50
    endloop
  endfacet
  facet normal 0.750111 0.661312 0
    outer loop
      vertex 23.1154 19.1227 -50
      vertex 21.8691 20.5364 -50
      vertex 23.1154 19.1227 50
    endloop
  endfacet
  facet normal 0.707107 0.707107 0
    outer loop
      vertex 20.5364 21.8691 50
      vertex 21.8691 20.5364 50
      vertex 20.5364 21.8691 -50
    endloop
  endfacet
  facet normal 0.707107 0.707107 0
    outer loop
      vertex 20.5364 21.8691 -50
      vertex 21.8691 20.5364 50
      vertex 21.8691 20.5364 -50
    endloop
  endfacet
  facet normal 0.661312 0.750111 0
    outer loop
      vertex 19.1227 23.1154 50
      vertex 20.5364 21.8691 50
      vertex 19.1227 23.1154 -50
    endloop
  endfacet
  facet normal 0.661312 0.750111 0
    outer loop
      vertex 19.1227 23.1154 -50
      vertex 20.5364 21.8691 50
      vertex 20.5364 21.8691 -50
    endloop
  endfacet
  facet normal 0.612907 0.790155 0
    outer loop
      vertex 17.6336 24.2705 50
      vertex 19.1227 23.1154 50
      vertex 17.6336 24.2705 -50
    endloop
  endfacet
  facet normal 0.612907 0.790155 0
    outer loop
      vertex 17.6336 24.2705 -50
      vertex 19.1227 23.1154 50
      vertex 19.1227 23.1154 -50
    endloop
  endfacet
  facet normal 0.562083 0.827081 0
    outer loop
      vertex 16.0748 25.3298 50
      vertex 17.6336 24.2705 50
      vertex 16.0748 25.3298 -50
    endloop
  endfacet
  facet normal 0.562083 0.827081 0
    outer loop
      vertex 16.0748 25.3298 -50
      vertex 17.6336 24.2705 50
      vertex 17.6336 24.2705 -50
    endloop
  endfacet
  facet normal 0.509041 0.860742 0
    outer loop
      vertex 14.4526 26.2892 50
      vertex 16.0748 25.3298 50
      vertex 14.4526 26.2892 -50
    endloop
  endfacet
  facet normal 0.509041 0.860742 0
    outer loop
      vertex 14.4526 26.2892 -50
      vertex 16.0748 25.3298 50
      vertex 16.0748 25.3298 -50
    endloop
  endfacet
  facet normal 0.453991 0.891006 0
    outer loop
      vertex 12.7734 27.1448 50
      vertex 14.4526 26.2892 50
      vertex 12.7734 27.1448 -50
    endloop
  endfacet
  facet normal 0.453991 0.891006 0
    outer loop
      vertex 12.7734 27.1448 -50
      vertex 14.4526 26.2892 50
      vertex 14.4526 26.2892 -50
    endloop
  endfacet
  facet normal 0.397148 0.917755 0
    outer loop
      vertex 11.0437 27.8933 50
      vertex 12.7734 27.1448 50
      vertex 11.0437 27.8933 -50
    endloop
  endfacet
  facet normal 0.397148 0.917755 0
    outer loop
      vertex 11.0437 27.8933 -50
      vertex 12.7734 27.1448 50
      vertex 12.7734 27.1448 -50
    endloop
  endfacet
  facet normal 0.338737 0.940881 0
    outer loop
      vertex 9.27051 28.5317 50
      vertex 11.0437 27.8933 50
      vertex 9.27051 28.5317 -50
    endloop
  endfacet
  facet normal 0.338737 0.940881 0
    outer loop
      vertex 9.27051 28.5317 -50
      vertex 11.0437 27.8933 50
      vertex 11.0437 27.8933 -50
    endloop
  endfacet
  facet normal 0.278991 0.960294 0
    outer loop
      vertex 7.4607 29.0575 50
      vertex 9.27051 28.5317 50
      vertex 7.4607 29.0575 -50
    endloop
  endfacet
  facet normal 0.278991 0.960294 0
    outer loop
      vertex 7.4607 29.0575 -50
      vertex 9.27051 28.5317 50
      vertex 9.27051 28.5317 -50
    endloop
  endfacet
  facet normal 0.218143 0.975917 0
    outer loop
      vertex 5.62144 29.4686 50
      vertex 7.4607 29.0575 50
      vertex 5.62144 29.4686 -50
    endloop
  endfacet
  facet normal 0.218143 0.975917 0
    outer loop
      vertex 5.62144 29.4686 -50
      vertex 7.4607 29.0575 50
      vertex 7.4607 29.0575 -50
    endloop
  endfacet
  facet normal 0.156434 0.987688 0
    outer loop
      vertex 3.76 29.7634 50
      vertex 5.62144 29.4686 50
      vertex 3.76 29.7634 -50
    endloop
  endfacet
  facet normal 0.156434 0.987688 0
    outer loop
      vertex 3.76 29.7634 -50
      vertex 5.62144 29.4686 50
      vertex 5.62144 29.4686 -50
    endloop
  endfacet
  facet normal 0.0941084 0.995562 0
    outer loop
      vertex 1.88372 29.9408 50
      vertex 3.76 29.7634 50
      vertex 1.88372 29.9408 -50
    endloop
  endfacet
  facet normal 0.0941084 0.995562 0
    outer loop
      vertex 1.88372 29.9408 -50
      vertex 3.76 29.7634 50
      vertex 3.76 29.7634 -50
    endloop
  endfacet
  facet normal 0.0314107 0.999507 0
    outer loop
      vertex 0 30 50
      vertex 1.88372 29.9408 50
      vertex 0 30 -50
    endloop
  endfacet
  facet normal 0.0314107 0.999507 0
    outer loop
      vertex 0 30 -50
      vertex 1.88372 29.9408 50
      vertex 1.88372 29.9408 -50
    endloop
  endfacet
  facet normal -0.0314107 0.999507 0
    outer loop
      vertex -1.88372 29.9408 50
      vertex 0 30 50
      vertex -1.88372 29.9408 -50
    endloop
  endfacet
  facet normal -0.0314107 0.999507 0
    outer loop
      vertex -1.88372 29.9408 -50
      vertex 0 30 50
      vertex 0 30 -50
    endloop
  endfacet
  facet normal -0.0941084 0.995562 0
    outer loop
      vertex -3.76 29.7634 50
      vertex -1.88372 29.9408 50
      vertex -3.76 29.7634 -50
    endloop
  endfacet
  facet normal -0.0941084 0.995562 0
    outer loop
      vertex -3.76 29.7634 -50
      vertex -1.88372 29.9408 50
      vertex -1.88372 29.9408 -50
    endloop
  endfacet
  facet normal -0.156434 0.987688 0
    outer loop
      vertex -5.62144 29.4686 50
      vertex -3.76 29.7634 50
      vertex -5.62144 29.4686 -50
    endloop
  endfacet
  facet normal -0.156434 0.987688 0
    outer loop
      vertex -5.62144 29.4686 -50
      vertex -3.76 29.7634 50
      vertex -3.76 29.7634 -50
    endloop
  endfacet
  facet normal -0.218143 0.975917 0
    outer loop
      vertex -7.4607 29.0575 50
      vertex -5.62144 29.4686 50
      vertex -7.4607 29.0575 -50
    endloop
  endfacet
  facet normal -0.218143 0.975917 0
    outer loop
      vertex -7.4607 29.0575 -50
      vertex -5.62144 29.4686 50
      vertex -5.62144 29.4686 -50
    endloop
  endfacet
  facet normal -0.278991 0.960294 0
    outer loop
      vertex -9.27051 28.5317 50
      vertex -7.4607 29.0575 50
      vertex -9.27051 28.5317 -50
    endloop
  endfacet
  facet normal -0.278991 0.960294 0
    outer loop
      vertex -9.27051 28.5317 -50
      vertex -7.4607 29.0575 50
      vertex -7.4607 29.0575 -50
    endloop
  endfacet
  facet normal -0.338737 0.940881 0
    outer loop
      vertex -11.0437 27.8933 50
      vertex -9.27051 28.5317 50
      vertex -11.0437 27.8933 -50
    endloop
  endfacet
  facet normal -0.338737 0.940881 0
    outer loop
      vertex -11.0437 27.8933 -50
      vertex -9.27051 28.5317 50
      vertex -9.27051 28.5317 -50
    endloop
  endfacet
  facet normal -0.397148 0.917755 0
    outer loop
      vertex -12.7734 27.1448 50
      vertex -11.0437 27.8933 50
      vertex -12.7734 27.1448 -50
    endloop
  endfacet
  facet normal -0.397148 0.917755 0
    outer loop
      vertex -12.7734 27.1448 -50
      vertex -11.0437 27.8933 50
      vertex -11.0437 27.8933 -50
    endloop
  endfacet
  facet normal -0.453991 0.891006 0
    outer loop
      vertex -14.4526 26.2892 50
      vertex -12.7734 27.1448 50
      vertex -14.4526 26.2892 -50
    endloop
  endfacet
  facet normal -0.453991 0.891006 0
    outer loop
      vertex -14.4526 26.2892 -50
      vertex -12.7734 27.1448 50
      vertex -12.7734 27.1448 -50
    endloop
  endfacet
  facet normal -0.509041 0.860742 0
    outer loop
      vertex -16.0748 25.3298 50
      vertex -14.4526 26.2892 50
      vertex -16.0748 25.3298 -50
    endloop
  endfacet
  facet normal -0.509041 0.860742 0
    outer loop
      vertex -16.0748 25.3298 -50
      vertex -14.4526 26.2892 50
      vertex -14.4526 26.2892 -50
    endloop
  endfacet
  facet normal -0.562083 0.827081 0
    outer loop
      vertex -17.6336 24.2705 50
      vertex -16.0748 25.3298 50
      vertex -17.6336 24.2705 -50
    endloop
  endfacet
  facet normal -0.562083 0.827081 0
    outer loop
      vertex -17.6336 24.2705 -50
      vertex -16.0748 25.3298 50
      vertex -16.0748 25.3298 -50
    endloop
  endfacet
  facet normal -0.612907 0.790155 0
    outer loop
      vertex -19.1227 23.1154 50
      vertex -17.6336 24.2705 50
      vertex -19.1227 23.1154 -50
    endloop
  endfacet
  facet normal -0.612907 0.790155 0
    outer loop
      vertex -19.1227 23.1154 -50
      vertex -17.6336 24.2705 50
      vertex -17.6336 24.2705 -50
    endloop
  endfacet
  facet normal -0.661312 0.750111 0
    outer loop
      vertex -20.5364 21.8691 50
      vertex -19.1227 23.1154 50
      vertex -20.5364 21.8691 -50
    endloop
  endfacet
  facet normal -0.661312 0.750111 0
    outer loop
      vertex -20.5364 21.8691 -50
      vertex -19.1227 23.1154 50
      vertex -19.1227 23.1154 -50
    endloop
  endfacet
  facet normal -0.707107 0.707107 0
    outer loop
      vertex -21.8691 20.5364 50
      vertex -20.5364 21.8691 50
      vertex -21.8691 20.5364 -50
    endloop
  endfacet
  facet normal -0.707107 0.707107 0
    outer loop
      vertex -21.8691 20.5364 -50
      vertex -20.5364 21.8691 50
      vertex -20.5364 21.8691 -50
    endloop
  endfacet
  facet normal -0.750111 0.661312 0
    outer loop
      vertex -23.1154 19.1227 50
      vertex -21.8691 20.5364 50
      vertex -23.1154 19.1227 -50
    endloop
  endfacet
  facet normal -0.750111 0.661312 0
    outer loop
      vertex -23.1154 19.1227 -50
      vertex -21.8691 20.5364 50
      vertex -21.8691 20.5364 -50
    endloop
  endfacet
  facet normal -0.790155 0.612907 0
    outer loop
      vertex -24.2705 17.6336 50
      vertex -23.1154 19.1227 50
      vertex -24.2705 17.6336 -50
    endloop
  endfacet
  facet normal -0.790155 0.612907 0
    outer loop
      vertex -24.2705 17.6336 -50
      vertex -23.1154 19.1227 50
      vertex -23.1154 19.1227 -50
    endloop
  endfacet
  facet normal -0.827081 0.562083 0
    outer loop
      vertex -25.3298 16.0748 50
      vertex -24.2705 17.6336 50
      vertex -25.3298 16.0748 -50
    endloop
  endfacet
  facet normal -0.827081 0.562083 0
    outer loop
      vertex -25.3298 16.0748 -50
      vertex -24.2705 17.6336 50
      vertex -24.2705 17.6336 -50
    endloop
  endfacet
  facet normal -0.860742 0.509041 0
    outer loop
      vertex -26.2892 14.4526 50
      vertex -25.3298 16.0748 50
      vertex -26.2892 14.4526 -50
    endloop
  endfacet
  facet normal -0.860742 0.509041 0
    outer loop
      vertex -26.2892 14.4526 -50
      vertex -25.3298 16.0748 50
      vertex -25.3298 16.0748 -50
    endloop
  endfacet
  facet normal -0.891006 0.453991 0
    outer loop
      vertex -27.1448 12.7734 50
      vertex -26.2892 14.4526 50
      vertex -27.1448 12.7734 -50
    endloop
  endfacet
  facet normal -0.891006 0.453991 0
    outer loop
      vertex -27.1448 12.7734 -50
      vertex -26.2892 14.4526 50
      vertex -26.2892 14.4526 -50
    endloop
  endfacet
  facet normal -0.917755 0.397148 0
    outer loop
      vertex -27.8933 11.0437 50
      vertex -27.1448 12.7734 50
      vertex -27.8933 11.0437 -50
    endloop
  endfacet
  facet normal -0.917755 0.397148 0
    outer loop
      vertex -27.8933 11.0437 -50
      vertex -27.1448 12.7734 50
      vertex -27.1448 12.7734 -50
    endloop
  endfacet
  facet normal -0.940881 0.338737 0
    outer loop
      vertex -28.5317 9.27051 50
      vertex -27.8933 11.0437 50
      vertex -28.5317 9.27051 -50
    endloop
  endfacet
  facet normal -0.940881 0.338737 0
    outer loop
      vertex -28.5317 9.27051 -50
      vertex -27.8933 11.0437 50
      vertex -27.8933 11.0437 -50
    endloop
  endfacet
  facet normal -0.960294 0.278991 0
    outer loop
      vertex -29.0575 7.4607 50
      vertex -28.5317 9.27051 50
      vertex -29.0575 7.4607 -50
    endloop
  endfacet
  facet normal -0.960294 0.278991 0
    outer loop
      vertex -29.0575 7.4607 -50
      vertex -28.5317 9.27051 50
      vertex -28.5317 9.27051 -50
    endloop
  endfacet
  facet normal -0.975917 0.218143 0
    outer loop
      vertex -29.4686 5.62144 50
      vertex -29.0575 7.4607 50
      vertex -29.4686 5.62144 -50
    endloop
  endfacet
  facet normal -0.975917 0.218143 0
    outer loop
      vertex -29.4686 5.62144 -50
      vertex -29.0575 7.4607 50
      vertex -29.0575 7.4607 -50
    endloop
  endfacet
  facet normal -0.987688 0.156434 0
    outer loop
      vertex -29.7634 3.76 50
      vertex -29.4686 5.62144 50
      vertex -29.7634 3.76 -50
    endloop
  endfacet
  facet normal -0.987688 0.156434 0
    outer loop
      vertex -29.7634 3.76 -50
      vertex -29.4686 5.62144 50
      vertex -29.4686 5.62144 -50
    endloop
  endfacet
  facet normal -0.995562 0.0941084 0
    outer loop
      vertex -29.9408 1.88372 50
      vertex -29.7634 3.76 50
      vertex -29.9408 1.88372 -50
    endloop
  endfacet
  facet normal -0.995562 0.0941084 0
    outer loop
      vertex -29.9408 1.88372 -50
      vertex -29.7634 3.76 50
      vertex -29.7634 3.76 -50
    endloop
  endfacet
  facet normal 0 0 1
    outer loop
      vertex -30 0 50
      vertex -29.9408 -1.88372 50
      vertex -29.7634 -3.76 50
    endloop
  endfacet
  facet normal 0 0 1
    outer loop
      vertex -29.0575 -7.4607 50
      vertex -30 0 50
      vertex -29.4686 -5.62144 50
    endloop
  endfacet
  facet normal 0 0 1
    outer loop
      vertex -29.4686 -5.62144 50
      vertex -30 0 50
      vertex -29.7634 -3.76 50
    endloop
  endfacet
  facet normal 0 0 1
    outer loop
      vertex -28.5317 -9.27051 50
      vertex -30 0 50
      vertex -29.0575 -7.4607 50
    endloop
  endfacet
  facet normal 0 0 1
    outer loop
      vertex -27.8933 -11.0437 50
      vertex -30 0 50
      vertex -28.5317 -9.27051 50
    endloop
  endfacet
  facet normal 0 0 1
    outer loop
      vertex -27.1448 -12.7734 50
      vertex -30 0 50
      vertex -27.8933 -11.0437 50
    endloop
  endfacet
  facet normal 0 0 1
    outer loop
      vertex -26.2892 -14.4526 50
      vertex -30 0 50
      vertex -27.1448 -12.7734 50
    endloop
  endfacet
  facet normal 0 0 1
    outer loop
      vertex -25.3298 -16.0748 50
      vertex -30 0 50
      vertex -26.2892 -14.4526 50
    endloop
  endfacet
  facet normal 0 0 1
    outer loop
      vertex -24.2705 -17.6336 50
      vertex -30 0 50
      vertex -25.3298 -16.0748 50
    endloop
  endfacet
  facet normal 0 0 1
    outer loop
      vertex -23.1154 -19.1227 50
      vertex -30 0 50
      vertex -24.2705 -17.6336 50
    endloop
  endfacet
  facet normal 0 0 1
    outer loop
      vertex -21.8691 -20.5364 50
      vertex -30 0 50
      vertex -23.1154 -19.1227 50
    endloop
  endfacet
  facet normal 0 0 1
    outer loop
      vertex -20.5364 -21.8691 50
      vertex -30 0 50
      vertex -21.8691 -20.5364 50
    endloop
  endfacet
  facet normal 0 0 1
    outer loop
      vertex -19.1227 -23.1154 50
      vertex -30 0 50
      vertex -20.5364 -21.8691 50
    endloop
  endfacet
  facet normal 0 0 1
    outer loop
      vertex -17.6336 -24.2705 50
      vertex -30 0 50
      vertex -19.1227 -23.1154 50
    endloop
  endfacet
  facet normal 0 0 1
    outer loop
      vertex -16.0748 -25.3298 50
      vertex -30 0 50
      vertex -17.6336 -24.2705 50
    endloop
  endfacet
  facet normal 0 0 1
    outer loop
      vertex -14.4526 -26.2892 50
      vertex -30 0 50
      vertex -16.0748 -25.3298 50
    endloop
  endfacet
  facet normal 0 0 1
    outer loop
      vertex -12.7734 -27.1448 50
      vertex -30 0 50
      vertex -14.4526 -26.2892 50
    endloop
  endfacet
  facet normal 0 0 1
    outer loop
      vertex -11.0437 -27.8933 50
      vertex -30 0 50
      vertex -12.7734 -27.1448 50
    endloop
  endfacet
  facet normal 0 0 1
    outer loop
      vertex -9.27051 -28.5317 50
      vertex -30 0 50
      vertex -11.0437 -27.8933 50
    endloop
  endfacet
  facet normal 0 0 1
    outer loop
      vertex -7.4607 -29.0575 50
      vertex -30 0 50
      vertex -9.27051 -28.5317 50
    endloop
  endfacet
  facet normal 0 0 1
    outer loop
      vertex -5.62144 -29.4686 50
      vertex -30 0 50
      vertex -7.4607 -29.0575 50
    endloop
  endfacet
  facet normal 0 0 1
    outer loop
      vertex -3.76 -29.7634 50
      vertex -30 0 50
      vertex -5.62144 -29.4686 50
    endloop
  endfacet
  facet normal 0 0 1
    outer loop
      vertex -1.88372 -29.9408 50
      vertex -30 0 50
      vertex -3.76 -29.7634 50
    endloop
  endfacet
  facet normal 0 0 1
    outer loop
      vertex 0 -30 50
      vertex -30 0 50
      vertex -1.88372 -29.9408 50
    endloop
  endfacet
  facet normal 0 0 1
    outer loop
      vertex 1.88372 -29.9408 50
      vertex -30 0 50
      vertex 0 -30 50
    endloop
  endfacet
  facet normal 0 0 1
    outer loop
      vertex 3.76 -29.7634 50
      vertex -30 0 50
      vertex 1.88372 -29.9408 50
    endloop
  endfacet
  facet normal 0 0 1
    outer loop
      vertex 5.62144 -29.4686 50
      vertex -30 0 50
      vertex 3.76 -29.7634 50
    endloop
  endfacet
  facet normal 0 0 1
    outer loop
      vertex 7.4607 -29.0575 50
      vertex -30 0 50
      vertex 5.62144 -29.4686 50
    endloop
  endfacet
  facet normal 0 0 1
    outer loop
      vertex 9.27051 -28.5317 50
      vertex -30 0 50
      vertex 7.4607 -29.0575 50
    endloop
  endfacet
  facet normal 0 0 1
    outer loop
      vertex 11.0437 -27.8933 50
      vertex -30 0 50
      vertex 9.27051 -28.5317 50
    endloop
  endfacet
  facet normal 0 0 1
    outer loop
      vertex 12.7734 -27.1448 50
      vertex -30 0 50
      vertex 11.0437 -27.8933 50
    endloop
  endfacet
  facet normal 0 0 1
    outer loop
      vertex 14.4526 -26.2892 50
      vertex -30 0 50
      vertex 12.7734 -27.1448 50
    endloop
  endfacet
  facet normal 0 0 1
    outer loop
      vertex 16.0748 -25.3298 50
      vertex -30 0 50
      vertex 14.4526 -26.2892 50
    endloop
  endfacet
  facet normal 0 0 1
    outer loop
      vertex 17.6336 -24.2705 50
      vertex -30 0 50
      vertex 16.0748 -25.3298 50
    endloop
  endfacet
  facet normal 0 0 1
    outer loop
      vertex 19.1227 -23.1154 50
      vertex -30 0 50
      vertex 17.6336 -24.2705 50
    endloop
  endfacet
  facet normal 0 0 1
    outer loop
      vertex 20.5364 -21.8691 50
      vertex -30 0 50
      vertex 19.1227 -23.1154 50
    endloop
  endfacet
  facet normal 0 0 1
    outer loop
      vertex 21.8691 -20.5364 50
      vertex -30 0 50
      vertex 20.5364 -21.8691 50
    endloop
  endfacet
  facet normal 0 0 1
    outer loop
      vertex 23.1154 -19.1227 50
      vertex -30 0 50
      vertex 21.8691 -20.5364 50
    endloop
  endfacet
  facet normal 0 0 1
    outer loop
      vertex 24.2705 -17.6336 50
      vertex -30 0 50
      vertex 23.1154 -19.1227 50
    endloop
  endfacet
  facet normal 0 0 1
    outer loop
      vertex 25.3298 -16.0748 50
      vertex -30 0 50
      vertex 24.2705 -17.6336 50
    endloop
  endfacet
  facet normal 0 0 1
    outer loop
      vertex 26.2892 -14.4526 50
      vertex -30 0 50
      vertex 25.3298 -16.0748 50
    endloop
  endfacet
  facet normal 0 0 1
    outer loop
      vertex 27.1448 -12.7734 50
      vertex -30 0 50
      vertex 26.2892 -14.4526 50
    endloop
  endfacet
  facet normal 0 0 1
    outer loop
      vertex 27.8933 -11.0437 50
      vertex -30 0 50
      vertex 27.1448 -12.7734 50
    endloop
  endfacet
  facet normal 0 0 1
    outer loop
      vertex 28.5317 -9.27051 50
      vertex -30 0 50
      vertex 27.8933 -11.0437 50
    endloop
  endfacet
  facet normal 0 0 1
    outer loop
      vertex 29.0575 -7.4607 50
      vertex -30 0 50
      vertex 28.5317 -9.27051 50
    endloop
  endfacet
  facet normal 0 0 1
    outer loop
      vertex 29.4686 -5.62144 50
      vertex -30 0 50
      vertex 29.0575 -7.4607 50
    endloop
  endfacet
  facet normal 0 0 1
    outer loop
      vertex 29.7634 -3.76 50
      vertex -30 0 50
      vertex 29.4686 -5.62144 50
    endloop
  endfacet
  facet normal 0 0 1
    outer loop
      vertex 29.9408 -1.88372 50
      vertex -30 0 50
      vertex 29.7634 -3.76 50
    endloop
  endfacet
  facet normal 0 0 1
    outer loop
      vertex 30 0 50
      vertex -30 0 50
      vertex 29.9408 -1.88372 50
    endloop
  endfacet
  facet normal 0 0 1
    outer loop
      vertex 29.9408 1.88372 50
      vertex -30 0 50
      vertex 30 0 50
    endloop
  endfacet
  facet normal 0 0 1
    outer loop
      vertex 29.7634 3.76 50
      vertex -30 0 50
      vertex 29.9408 1.88372 50
    endloop
  endfacet
  facet normal 0 0 1
    outer loop
      vertex 29.4686 5.62144 50
      vertex -30 0 50
      vertex 29.7634 3.76 50
    endloop
  endfacet
  facet normal 0 0 1
    outer loop
      vertex 29.0575 7.4607 50
      vertex -30 0 50
      vertex 29.4686 5.62144 50
    endloop
  endfacet
  facet normal 0 0 1
    outer loop
      vertex 28.5317 9.27051 50
      vertex -30 0 50
      vertex 29.0575 7.4607 50
    endloop
  endfacet
  facet normal 0 0 1
    outer loop
      vertex 27.8933 11.0437 50
      vertex -30 0 50
      vertex 28.5317 9.27051 50
    endloop
  endfacet
  facet normal 0 0 1
    outer loop
      vertex 27.1448 12.7734 50
      vertex -30 0 50
      vertex 27.8933 11.0437 50
    endloop
  endfacet
  facet normal 0 0 1
    outer loop
      vertex 26.2892 14.4526 50
      vertex -30 0 50
      vertex 27.1448 12.7734 50
    endloop
  endfacet
  facet normal 0 0 1
    outer loop
      vertex 25.3298 16.0748 50
      vertex -30 0 50
      vertex 26.2892 14.4526 50
    endloop
  endfacet
  facet normal 0 0 1
    outer loop
      vertex 24.2705 17.6336 50
      vertex -30 0 50
      vertex 25.3298 16.0748 50
    endloop
  endfacet
  facet normal 0 0 1
    outer loop
      vertex 23.1154 19.1227 50
      vertex -30 0 50
      vertex 24.2705 17.6336 50
    endloop
  endfacet
  facet normal 0 0 1
    outer loop
      vertex 21.8691 20.5364 50
      vertex -30 0 50
      vertex 23.1154 19.1227 50
    endloop
  endfacet
  facet normal 0 0 1
    outer loop
      vertex 20.5364 21.8691 50
      vertex -30 0 50
      vertex 21.8691 20.5364 50
    endloop
  endfacet
  facet normal 0 0 1
    outer loop
      vertex 19.1227 23.1154 50
      vertex -30 0 50
      vertex 20.5364 21.8691 50
    endloop
  endfacet
  facet normal 0 0 1
    outer loop
      vertex 17.6336 24.2705 50
      vertex -30 0 50
      vertex 19.1227 23.1154 50
    endloop
  endfacet
  facet normal 0 0 1
    outer loop
      vertex 16.0748 25.3298 50
      vertex -30 0 50
      vertex 17.6336 24.2705 50
    endloop
  endfacet
  facet normal 0 0 1
    outer loop
      vertex 14.4526 26.2892 50
      vertex -30 0 50
      vertex 16.0748 25.3298 50
    endloop
  endfacet
  facet normal 0 0 1
    outer loop
      vertex 12.7734 27.1448 50
      vertex -30 0 50
      vertex 14.4526 26.2892 50
    endloop
  endfacet
  facet normal 0 0 1
    outer loop
      vertex 11.0437 27.8933 50
      vertex -30 0 50
      vertex 12.7734 27.1448 50
    endloop
  endfacet
  facet normal 0 0 1
    outer loop
      vertex 9.27051 28.5317 50
      vertex -30 0 50
      vertex 11.0437 27.8933 50
    endloop
  endfacet
  facet normal 0 0 1
    outer loop
      vertex 7.4607 29.0575 50
      vertex -30 0 50
      vertex 9.27051 28.5317 50
    endloop
  endfacet
  facet normal 0 0 1
    outer loop
      vertex 5.62144 29.4686 50
      vertex -30 0 50
      vertex 7.4607 29.0575 50
    endloop
  endfacet
  facet normal 0 0 1
    outer loop
      vertex 3.76 29.7634 50
      vertex -30 0 50
      vertex 5.62144 29.4686 50
    endloop
  endfacet
  facet normal 0 0 1
    outer loop
      vertex 1.88372 29.9408 50
      vertex -30 0 50
      vertex 3.76 29.7634 50
    endloop
  endfacet
  facet normal 0 0 1
    outer loop
      vertex 0 30 50
      vertex -30 0 50
      vertex 1.88372 29.9408 50
    endloop
  endfacet
  facet normal 0 0 1
    outer loop
      vertex -1.88372 29.9408 50
      vertex -30 0 50
      vertex 0 30 50
    endloop
  endfacet
  facet normal 0 0 1
    outer loop
      vertex -3.76 29.7634 50
      vertex -30 0 50
      vertex -1.88372 29.9408 50
    endloop
  endfacet
  facet normal 0 0 1
    outer loop
      vertex -5.62144 29.4686 50
      vertex -30 0 50
      vertex -3.76 29.7634 50
    endloop
  endfacet
  facet normal 0 0 1
    outer loop
      vertex -7.4607 29.0575 50
      vertex -30 0 50
      vertex -5.62144 29.4686 50
    endloop
  endfacet
  facet normal 0 0 1
    outer loop
      vertex -9.27051 28.5317 50
      vertex -30 0 50
      vertex -7.4607 29.0575 50
    endloop
  endfacet
  facet normal 0 0 1
    outer loop
      vertex -11.0437 27.8933 50
      vertex -30 0 50
      vertex -9.27051 28.5317 50
    endloop
  endfacet
  facet normal 0 0 1
    outer loop
      vertex -12.7734 27.1448 50
      vertex -30 0 50
      vertex -11.0437 27.8933 50
    endloop
  endfacet
  facet normal 0 0 1
    outer loop
      vertex -14.4526 26.2892 50
      vertex -30 0 50
      vertex -12.7734 27.1448 50
    endloop
  endfacet
  facet normal 0 0 1
    outer loop
      vertex -16.0748 25.3298 50
      vertex -30 0 50
      vertex -14.4526 26.2892 50
    endloop
  endfacet
  facet normal 0 0 1
    outer loop
      vertex -17.6336 24.2705 50
      vertex -30 0 50
      vertex -16.0748 25.3298 50
    endloop
  endfacet
  facet normal 0 0 1
    outer loop
      vertex -19.1227 23.1154 50
      vertex -30 0 50
      vertex -17.6336 24.2705 50
    endloop
  endfacet
  facet normal 0 0 1
    outer loop
      vertex -20.5364 21.8691 50
      vertex -30 0 50
      vertex -19.1227 23.1154 50
    endloop
  endfacet
  facet normal 0 0 1
    outer loop
      vertex -21.8691 20.5364 50
      vertex -30 0 50
      vertex -20.5364 21.8691 50
    endloop
  endfacet
  facet normal 0 0 1
    outer loop
      vertex -23.1154 19.1227 50
      vertex -30 0 50
      vertex -21.8691 20.5364 50
    endloop
  endfacet
  facet normal 0 0 1
    outer loop
      vertex -24.2705 17.6336 50
      vertex -30 0 50
      vertex -23.1154 19.1227 50
    endloop
  endfacet
  facet normal 0 0 1
    outer loop
      vertex -25.3298 16.0748 50
      vertex -30 0 50
      vertex -24.2705 17.6336 50
    endloop
  endfacet
  facet normal 0 0 1
    outer loop
      vertex -26.2892 14.4526 50
      vertex -30 0 50
      vertex -25.3298 16.0748 50
    endloop
  endfacet
  facet normal 0 0 1
    outer loop
      vertex -27.1448 12.7734 50
      vertex -30 0 50
      vertex -26.2892 14.4526 50
    endloop
  endfacet
  facet normal 0 0 1
    outer loop
      vertex -27.8933 11.0437 50
      vertex -30 0 50
      vertex -27.1448 12.7734 50
    endloop
  endfacet
  facet normal 0 0 1
    outer loop
      vertex -28.5317 9.27051 50
      vertex -30 0 50
      vertex -27.8933 11.0437 50
    endloop
  endfacet
  facet normal 0 0 1
    outer loop
      vertex -29.0575 7.4607 50
      vertex -30 0 50
      vertex -28.5317 9.27051 50
    endloop
  endfacet
  facet normal 0 0 1
    outer loop
      vertex -29.4686 5.62144 50
      vertex -30 0 50
      vertex -29.0575 7.4607 50
    endloop
  endfacet
  facet normal 0 0 1
    outer loop
      vertex -29.7634 3.76 50
      vertex -30 0 50
      vertex -29.4686 5.62144 50
    endloop
  endfacet
  facet normal 0 0 1
    outer loop
      vertex -29.9408 1.88372 50
      vertex -30 0 50
      vertex -29.7634 3.76 50
    endloop
  endfacet
endsolid OpenSCAD_Model
